<svg width="1476" height="752" xmlns="http://www.w3.org/2000/svg" xmlns:xlink="http://www.w3.org/1999/xlink">
  <path d="M915 752h236L1474 1h-236z" fill="#c96600"/>
  <path d="M1475 1l-76 174-732 2L743 2z" fill="#ff8000"/>
  <defs>
    <path id="a" d="M1150 752H914L755 382h236z"/>
  </defs>
  <use xlink:href="#a" fill="#ff8000"/>
  <defs>
    <path id="b" d="M972 412H801l133 310h170z"/>
  </defs>
  <use stroke="#ff8000" stroke-linecap="round" fill="none" stroke-width="60" xlink:href="#b"/>
  <path d="M881 752H645L322 1h236z" fill="#c96600"/>
  <defs>
    <path id="c" d="M0 752h236L559 1H323z"/>
  </defs>
  <use xlink:href="#c" fill="#ff8000"/>
  <defs>
    <path id="d" d="M513 31H343L46 722h170z"/>
  </defs>
  <use stroke="#ff8000" stroke-linecap="round" fill="none" stroke-width="60" xlink:href="#d"/>
  <path d="M1150 752l-60-410-58 137 118 273zM1400 176l-238 1-16 36 254-37zM559 2l-41 454-77-178L559 2z" fill-opacity=".2"/>
</svg>
